<?xml version="1.0" standalone="no"?>
<!DOCTYPE svg PUBLIC "-//W3C//DTD SVG 20010904//EN"
 "http://www.w3.org/TR/2001/REC-SVG-20010904/DTD/svg10.dtd">
<svg version="1.0" xmlns="http://www.w3.org/2000/svg"
 width="1010.000000pt" height="434.000000pt" viewBox="0 0 1010.000000 434.000000"
 preserveAspectRatio="xMidYMid meet">
<g transform="translate(0.000000,434.000000) scale(0.100000,-0.100000)"
 stroke="none">
<path d="M1455 4135 c-22 -9 -94 -20 -160 -26 -221 -18 -405 -59 -530 -121
-39 -18 -105 -67 -164 -119 -197 -175 -281 -345 -281 -569 0 -188 68 -371 184
-497 76 -82 138 -124 219 -149 62 -19 63 -25 2 -44 -78 -24 -191 -91 -244
-142 -50 -51 -102 -141 -116 -202 -5 -26 -1 -23 36 25 167 211 393 315 563
261 l58 -19 -63 -12 c-267 -52 -451 -188 -517 -382 -22 -63 -38 -159 -25 -144
5 6 27 35 48 65 130 186 306 322 472 365 69 18 182 19 252 3 57 -13 68 -28 20
-28 -53 0 -190 -40 -276 -80 -195 -91 -310 -229 -362 -431 -23 -90 -38 -249
-23 -249 5 0 13 15 16 33 3 17 23 70 44 117 149 335 402 519 712 520 65 0 97
-5 137 -22 29 -12 53 -24 53 -27 -1 -3 -35 -22 -76 -41 -110 -50 -219 -124
-299 -205 -176 -175 -210 -357 -107 -560 59 -117 165 -219 304 -295 77 -41 77
-41 98 -106 44 -132 137 -237 267 -300 92 -45 183 -64 309 -64 203 0 362 46
519 149 145 96 176 127 75 76 -170 -86 -381 -126 -491 -93 -47 13 -113 68
-135 110 -15 30 -15 32 13 72 40 57 132 128 225 175 l79 39 -73 12 c-132 23
-292 -9 -338 -67 l-20 -26 -60 46 c-67 52 -86 57 -236 60 -99 2 -103 3 -198
50 -107 53 -188 124 -227 197 -21 39 -24 59 -24 145 0 94 2 104 36 175 67 138
170 238 314 306 144 67 240 77 365 38 34 -10 105 -18 187 -21 121 -5 136 -3
173 16 l41 21 34 -26 c50 -38 148 -66 235 -67 95 -1 204 20 233 44 22 18 21
18 -53 19 -86 0 -178 21 -227 51 -45 28 -83 86 -83 127 0 39 28 98 62 129 76
71 256 71 336 0 27 -25 28 -18 3 32 -49 95 -131 128 -293 118 l-98 -6 -56 39
c-70 49 -142 73 -221 74 -33 1 -59 4 -56 9 8 14 137 74 223 105 132 46 214 56
428 49 103 -3 205 -11 226 -17 28 -8 68 -39 131 -100 75 -73 101 -91 145 -104
29 -9 65 -16 78 -16 13 0 41 -13 62 -30 40 -32 156 -90 179 -90 10 0 7 9 -11
28 -52 56 -98 124 -98 147 0 52 144 79 220 40 57 -29 115 -81 165 -147 38 -50
45 -56 39 -32 -28 118 -95 237 -168 300 -62 54 -163 101 -231 109 -146 17
-165 16 -239 -4 -68 -19 -86 -20 -173 -11 -205 22 -450 31 -533 21 -144 -18
-415 -122 -460 -176 -9 -11 -22 -14 -49 -9 -51 9 -53 12 -34 40 36 56 110 81
427 144 94 19 55 33 -96 33 -194 0 -350 -43 -438 -120 -48 -42 -77 -55 -101
-48 -20 7 -19 10 17 47 54 55 120 95 184 111 l54 14 -38 7 c-90 17 -236 -23
-284 -78 -47 -54 -71 -65 -124 -59 -27 3 -48 9 -48 12 0 11 90 76 140 102 l45
24 -30 3 c-74 9 -217 -37 -270 -87 l-30 -29 -185 -5 c-293 -10 -352 6 -477
126 -113 108 -163 215 -163 351 0 229 136 431 365 540 147 71 311 103 483 94
l94 -5 43 -49 c56 -65 130 -104 207 -112 l61 -5 -57 55 c-47 45 -56 60 -56 89
0 19 5 40 12 47 33 33 134 -5 198 -74 22 -24 40 -48 40 -54 0 -5 5 -10 10 -10
17 0 11 62 -11 107 -26 54 -67 88 -149 126 -56 25 -80 30 -170 34 -80 3 -115
0 -145 -12z" fill="#FC451D"/>
<path d="M3150 2495 c-199 -45 -348 -190 -381 -370 -45 -242 87 -389 471 -525
237 -84 369 -168 425 -270 38 -72 42 -178 8 -252 -45 -99 -166 -186 -303 -219
-144 -34 -350 0 -524 86 -49 25 -91 45 -92 45 -6 0 -74 -138 -74 -149 0 -15
169 -97 255 -124 173 -53 375 -60 540 -16 266 69 414 272 391 536 -15 179
-113 311 -305 407 -40 21 -142 64 -226 96 -193 74 -265 110 -322 163 -56 51
-73 89 -73 162 0 70 17 112 69 168 116 126 328 151 598 71 137 -41 124 -44
157 31 17 39 25 69 20 74 -13 13 -156 56 -249 76 -111 24 -302 29 -385 10z"/>
<path d="M7377 2142 c-39 -41 -38 -103 2 -143 62 -61 171 -16 171 71 0 29 -27
77 -49 90 -39 20 -95 12 -124 -18z"/>
<path d="M4470 1714 c-96 -25 -161 -64 -237 -140 -85 -83 -125 -160 -150 -280
-62 -304 168 -597 486 -621 126 -9 246 23 361 98 62 40 62 40 44 61 -11 11
-35 33 -55 49 l-37 29 -58 -35 c-79 -48 -123 -59 -224 -59 -65 0 -99 5 -142
23 -67 26 -160 106 -188 161 l-19 38 52 22 c29 12 210 85 402 162 193 77 354
144 360 149 17 17 -51 134 -119 206 -102 109 -203 153 -346 152 -41 0 -100 -7
-130 -15z m274 -158 c53 -26 146 -115 146 -140 0 -6 -28 -22 -62 -35 -35 -13
-173 -69 -308 -124 -135 -54 -250 -100 -257 -101 -7 -1 -16 -5 -19 -9 -26 -26
-39 32 -25 109 25 132 107 240 223 293 84 39 92 40 175 37 53 -2 85 -10 127
-30z"/>
<path d="M5751 1714 c-111 -30 -235 -121 -289 -213 l-27 -46 -9 128 -8 127
-59 0 -59 0 0 -510 0 -510 69 0 70 0 3 303 3 302 28 57 c50 102 170 181 294
194 l61 7 6 51 c3 28 9 68 12 89 6 34 5 37 -17 36 -13 0 -48 -7 -78 -15z"/>
<path d="M6480 1719 c-97 -19 -228 -107 -283 -189 -15 -24 -16 -22 -16 62 -1
119 -1 118 -77 118 l-64 0 0 -750 0 -750 70 0 70 0 0 337 0 336 29 -40 c125
-173 403 -223 622 -112 82 41 185 144 222 222 101 209 61 473 -94 628 -119
119 -304 172 -479 138z m201 -145 c238 -70 346 -340 226 -567 -106 -201 -381
-258 -567 -118 -107 81 -155 178 -155 316 0 76 5 99 27 147 37 79 70 120 132
163 101 69 226 91 337 59z"/>
<path d="M8230 1724 c-289 -56 -479 -312 -442 -593 34 -252 238 -440 497 -458
122 -9 255 29 349 100 21 16 19 20 -36 86 l-28 32 -72 -36 c-288 -142 -617 92
-568 403 43 264 324 407 567 287 l72 -36 40 43 c22 24 41 49 41 55 0 19 -71
62 -147 90 -67 24 -212 39 -273 27z"/>
<path d="M9230 1714 c-147 -39 -282 -151 -345 -286 -49 -107 -64 -219 -43
-326 21 -108 69 -201 138 -271 241 -244 655 -201 838 87 55 85 76 164 76 282
-1 123 -26 209 -89 304 -118 178 -361 267 -575 210z m306 -168 c83 -42 139
-98 181 -185 25 -50 28 -67 28 -161 0 -96 -3 -110 -29 -165 -83 -168 -280
-260 -452 -210 -316 90 -390 488 -129 688 115 87 266 99 401 33z"/>
<path d="M7380 1200 l0 -510 70 0 70 0 0 510 0 510 -70 0 -70 0 0 -510z"/>
</g>
</svg>
