<?xml version="1.0" encoding="UTF-8" standalone="no"?>
<!-- Created with Inkscape (http://www.inkscape.org/) -->

<svg
   xmlns:dc="http://purl.org/dc/elements/1.1/"
   xmlns:cc="http://creativecommons.org/ns#"
   xmlns:rdf="http://www.w3.org/1999/02/22-rdf-syntax-ns#"
   xmlns:svg="http://www.w3.org/2000/svg"
   xmlns="http://www.w3.org/2000/svg"
   xmlns:sodipodi="http://sodipodi.sourceforge.net/DTD/sodipodi-0.dtd"
   xmlns:inkscape="http://www.inkscape.org/namespaces/inkscape"
   width="114.31204mm"
   height="93.841972mm"
   viewBox="0 0 114.31204 93.841973"
   version="1.1"
   id="svg8043"
   sodipodi:docname="logo_1.svg"
   inkscape:version="0.92pre1 unknown"
   inkscape:export-filename="/Serpico/public/img/logo_1.png"
   inkscape:export-xdpi="600"
   inkscape:export-ydpi="600">
  <defs
     id="defs8037" />
  <sodipodi:namedview
     id="base"
     pagecolor="#ffffff"
     bordercolor="#666666"
     borderopacity="1.0"
     inkscape:pageopacity="0.0"
     inkscape:pageshadow="2"
     inkscape:zoom="1.4"
     inkscape:cx="245.69744"
     inkscape:cy="133.71881"
     inkscape:document-units="mm"
     inkscape:current-layer="layer1"
     showgrid="false"
     inkscape:window-width="1717"
     inkscape:window-height="983"
     inkscape:window-x="64"
     inkscape:window-y="38"
     inkscape:window-maximized="0"
     inkscape:pagecheckerboard="false"
     borderlayer="false"
     fit-margin-top="0"
     fit-margin-left="0"
     fit-margin-right="0"
     fit-margin-bottom="0" />
  <metadata
     id="metadata8040">
    <rdf:RDF>
      <cc:Work
         rdf:about="">
        <dc:format>image/svg+xml</dc:format>
        <dc:type
           rdf:resource="http://purl.org/dc/dcmitype/StillImage" />
        <dc:title></dc:title>
      </cc:Work>
    </rdf:RDF>
  </metadata>
  <g
     inkscape:label="Layer 1"
     inkscape:groupmode="layer"
     id="layer1"
     transform="translate(-69.723528,12.426615)">
    <rect
       style="display:inline;opacity:1;fill:#eee000;fill-opacity:0;stroke:#eee000;stroke-width:0.10756282;stroke-linecap:round;stroke-linejoin:round;stroke-miterlimit:4;stroke-dasharray:none;stroke-opacity:0"
       id="rect7269-3-1-4-0-1-1-8"
       width="107.42473"
       height="106.85803"
       x="64.162872"
       y="-15.284534"
       ry="0"
       inkscape:export-filename="/Serpico/public/img/logo_1.jpg.png"
       inkscape:export-xdpi="300"
       inkscape:export-ydpi="300" />
    <path
       style="display:inline;fill:#8fa1b3;fill-opacity:1;fill-rule:evenodd;stroke:#65737e;stroke-width:8.06887531;stroke-linecap:round;stroke-linejoin:miter;stroke-miterlimit:4;stroke-dasharray:none;stroke-opacity:1"
       d="m 100.57634,19.203184 26.73913,-0.04226"
       id="path4832-3-37-5-2-0-4"
       inkscape:connector-curvature="0"
       sodipodi:nodetypes="cc"
       inkscape:export-filename="/Serpico/public/img/logo_1.jpg.png"
       inkscape:export-xdpi="300"
       inkscape:export-ydpi="300" />
    <path
       style="display:inline;fill:#8fa1b3;fill-opacity:1;fill-rule:evenodd;stroke:#65737e;stroke-width:8.07513046;stroke-linecap:round;stroke-linejoin:miter;stroke-miterlimit:4;stroke-dasharray:none;stroke-opacity:1"
       d="M 100.57968,5.4090061 152.42107,5.36676"
       id="path4832-3-6-5-9-8-8-7"
       inkscape:connector-curvature="0"
       sodipodi:nodetypes="cc"
       inkscape:export-filename="/Serpico/public/img/logo_1.jpg.png"
       inkscape:export-xdpi="300"
       inkscape:export-ydpi="300" />
    <path
       style="display:inline;fill:#29ff00;fill-opacity:0;fill-rule:evenodd;stroke:#fd9c3c;stroke-width:8.06887531;stroke-linecap:round;stroke-linejoin:miter;stroke-miterlimit:4;stroke-dasharray:none;stroke-opacity:1"
       d="m 143.22894,19.198597 6.30034,-0.02797 3.26046,-0.01374"
       id="path4832-3-3-92-46-9-5-2"
       inkscape:connector-curvature="0"
       sodipodi:nodetypes="ccc"
       inkscape:export-filename="/Serpico/public/img/logo_1.jpg.png"
       inkscape:export-xdpi="300"
       inkscape:export-ydpi="300" />
    <path
       style="display:inline;fill:#8fa1b3;fill-opacity:1;fill-rule:evenodd;stroke:#65737e;stroke-width:8.06887531;stroke-linecap:round;stroke-linejoin:miter;stroke-miterlimit:4;stroke-dasharray:none;stroke-opacity:1"
       d="m 152.78974,48.576874 -26.86801,-0.01575"
       id="path4832-3-5-2-9-3-0-4"
       inkscape:connector-curvature="0"
       sodipodi:nodetypes="cc"
       inkscape:export-filename="/Serpico/public/img/logo_1.jpg.png"
       inkscape:export-xdpi="300"
       inkscape:export-ydpi="300" />
    <path
       style="display:inline;fill:#29ff00;fill-opacity:0;fill-rule:evenodd;stroke:#fd9c3c;stroke-width:8.06887531;stroke-linecap:round;stroke-linejoin:miter;stroke-miterlimit:4;stroke-dasharray:none;stroke-opacity:1"
       d="m 110.13717,48.548733 -9.56083,0.04229"
       id="path4832-3-3-6-8-2-6-6-0"
       inkscape:connector-curvature="0"
       sodipodi:nodetypes="cc"
       inkscape:export-filename="/Serpico/public/img/logo_1.jpg.png"
       inkscape:export-xdpi="300"
       inkscape:export-ydpi="300" />
    <path
       style="display:inline;fill:#8fa1b3;fill-opacity:1;fill-rule:evenodd;stroke:#65737e;stroke-width:8.06887531;stroke-linecap:round;stroke-linejoin:miter;stroke-miterlimit:4;stroke-dasharray:none;stroke-opacity:1"
       d="m 100.57634,62.365826 26.73915,-0.04019"
       id="path4832-3-2-9-2-8-4-6"
       inkscape:connector-curvature="0"
       sodipodi:nodetypes="cc"
       inkscape:export-filename="/Serpico/public/img/logo_1.jpg.png"
       inkscape:export-xdpi="300"
       inkscape:export-ydpi="300" />
    <path
       style="display:inline;fill:#29ff00;fill-opacity:0;fill-rule:evenodd;stroke:#47586f;stroke-width:8.06887531;stroke-linecap:round;stroke-linejoin:miter;stroke-miterlimit:4;stroke-dasharray:none;stroke-opacity:1"
       d="m 143.22894,62.37835 9.5608,-0.04226"
       id="path4832-3-3-9-7-4-0-6-2"
       inkscape:connector-curvature="0"
       sodipodi:nodetypes="cc"
       inkscape:export-filename="/Serpico/public/img/logo_1.jpg.png"
       inkscape:export-xdpi="300"
       inkscape:export-ydpi="300" />
    <path
       style="display:inline;fill:#29ff00;fill-opacity:0;fill-rule:evenodd;stroke:#2b303b;stroke-width:7.26624775;stroke-linecap:round;stroke-linejoin:miter;stroke-miterlimit:4;stroke-dasharray:none;stroke-opacity:1"
       d="m 137.31269,-8.7915999 c 15.25472,0.453724 23.44662,0.4962528 28.23255,5.1468647 3.56646,3.46546345 3.04639,7.1136182 3.12851,11.7279471 0.11757,6.5871941 -0.0361,13.5326861 -0.0361,13.5326861 0.29015,3.0678 0.15601,5.48528 1.03372,7.149395 1.56735,2.972252 3.54634,5.141069 10.67945,5.624309"
       id="path4945-9-6-2-2-7-2-2-9"
       inkscape:connector-curvature="0"
       sodipodi:nodetypes="csscsc"
       inkscape:export-filename="/Serpico/public/img/logo_1.jpg.png"
       inkscape:export-xdpi="300"
       inkscape:export-ydpi="300" />
    <path
       style="display:inline;fill:#29ff00;fill-opacity:0;fill-rule:evenodd;stroke:#2b303b;stroke-width:7.28427649;stroke-linecap:round;stroke-linejoin:miter;stroke-miterlimit:4;stroke-dasharray:none;stroke-opacity:1"
       d="m 137.28807,77.771307 c 15.21863,-0.457092 23.39119,-0.499913 28.16584,-5.184716 3.55805,-3.490926 3.03914,-7.165887 3.12111,-11.814138 0.11713,-6.635576 -0.0362,-13.632086 -0.0362,-13.632086 0.28951,-3.090382 0.15557,-5.525631 1.03124,-7.201941 1.56368,-2.994135 3.53803,-5.17888 10.65429,-5.66566"
       id="path4945-9-6-3-7-1-5-9"
       inkscape:connector-curvature="0"
       sodipodi:nodetypes="csscsc"
       inkscape:export-filename="/Serpico/public/img/logo_1.jpg.png"
       inkscape:export-xdpi="300"
       inkscape:export-ydpi="300" />
    <path
       style="display:inline;fill:#29ff00;fill-opacity:0;fill-rule:evenodd;stroke:#2b303b;stroke-width:7.28427649;stroke-linecap:round;stroke-linejoin:miter;stroke-miterlimit:4;stroke-dasharray:none;stroke-opacity:1"
       d="M 116.4707,77.771307 C 101.25207,77.314215 93.079541,77.271394 88.30484,72.586591 84.746873,69.095665 85.26571,65.420704 85.183771,60.772453 85.066867,54.136877 85.220249,47.140367 85.220249,47.140367 84.930751,44.049985 85.064623,41.614736 84.189021,39.938426 82.62536,36.944291 80.65099,34.759546 73.534752,34.272766"
       id="path4945-9-6-6-61-5-0-8-0"
       inkscape:connector-curvature="0"
       sodipodi:nodetypes="csscsc"
       inkscape:export-filename="/Serpico/public/img/logo_1.jpg.png"
       inkscape:export-xdpi="300"
       inkscape:export-ydpi="300" />
    <path
       style="display:inline;fill:#29ff00;fill-opacity:0;fill-rule:evenodd;stroke:#2b303b;stroke-width:7.26624775;stroke-linecap:round;stroke-linejoin:miter;stroke-miterlimit:4;stroke-dasharray:none;stroke-opacity:1"
       d="m 116.44605,-8.7915999 c -15.2547,0.453724 -23.446543,0.4962528 -28.232582,5.1468647 -3.56641,3.46546345 -3.046308,7.1136182 -3.128469,11.7279471 -0.117167,6.5871941 0.03648,13.5326861 0.03648,13.5326861 -0.290117,3.0678 -0.155886,5.48528 -1.033632,7.149395 -1.567413,2.972252 -3.546428,5.141069 -10.679568,5.624309"
       id="path4945-9-6-6-6-9-4-5-6-8"
       inkscape:connector-curvature="0"
       sodipodi:nodetypes="csscsc"
       inkscape:export-filename="/Serpico/public/img/logo_1.jpg.png"
       inkscape:export-xdpi="300"
       inkscape:export-ydpi="300" />
    <path
       style="display:inline;fill:#2b303b;fill-opacity:1;stroke:#2b303b;stroke-width:0.1172053;stroke-miterlimit:4;stroke-dasharray:none;stroke-opacity:1"
       d="m 110.43016,38.561906 c -2.12132,0.0023 -4.42588,0.06518 -4.49511,-0.156979 -0.004,-0.01374 -0.0102,-2.0904 -0.0197,-4.613767 l -0.0198,-4.587886 4.38508,-0.01373 4.38505,0.0091 v 1.536874 1.47009 h -1.54968 -1.54991 l -0.0357,-0.645434 c -0.0514,-0.923021 -0.21125,-1.059869 -1.24237,-1.059869 -1.09466,0 -1.21541,0.15403 -1.16671,1.486718 l 0.0337,0.924226 1.14811,0.05885 1.14802,0.05884 v 0.646822 0.646847 l -1.02729,0.03428 c -0.56501,0.01813 -1.08962,0.08722 -1.16574,0.152001 -0.20777,0.176505 -0.12092,2.197853 0.10429,2.428591 0.11832,0.121758 0.4262,0.179692 0.98875,0.186052 1.05186,0.01136 1.18297,-0.109509 1.20126,-1.115361 l 0.0147,-0.744711 1.57863,-0.0327 1.57857,-0.03272 v 1.636051 c 0,1.605501 -0.004,1.636874 -0.25823,1.679195 -0.14223,0.02388 -1.36503,0.08336 -3.63826,0.04888 z m 5.63676,-0.04201 c -0.53086,-0.03496 -0.54526,-0.04594 -0.54004,-0.411661 0.003,-0.206725 -0.0222,-2.294214 -0.0575,-4.638956 l -0.0222,-4.280346 c 1.2472,-0.0043 2.49803,-0.01112 3.74625,-0.01575 3.29773,-0.01112 3.49356,-0.03452 4.18678,0.230459 0.60271,0.294437 0.75402,0.73717 0.75402,2.207124 0,1.357161 -0.13218,1.753458 -0.65156,1.955801 -0.36428,0.141747 -0.33398,0.363948 0.083,0.606956 0.58593,0.341569 0.73582,0.842593 0.67615,2.651011 -0.0294,0.887054 -0.011,1.628269 -0.075,1.670068 -0.0645,0.04136 -0.78919,0.07838 -1.67034,0.08222 -0.73587,-0.0023 -0.91865,-0.01374 -1.37798,-0.08903 -0.0979,-0.106087 -0.0888,-0.418063 -0.12323,-0.630196 -0.0421,-0.323444 -0.0614,-1.09689 -0.0678,-1.711364 -0.009,-0.614519 -0.0587,-1.193465 -0.11654,-1.286535 -0.13103,-0.212406 -1.33329,-0.361569 -1.74617,-0.216722 -0.37816,0.132668 -0.42332,0.372357 -0.43695,2.319319 -0.004,0.804615 -0.0279,1.480929 -0.0492,1.502942 -0.0563,0.05796 -1.86833,0.09861 -2.51026,0.05611 z m 4.56499,-5.509906 c 0.28767,-0.294752 0.36616,-0.620333 0.32839,-1.363244 -0.0541,-1.065253 -0.13344,-1.147371 -1.10878,-1.145239 -0.45559,9.68e-4 -0.90585,0.05177 -1.00057,0.113118 -0.12505,0.08087 -0.18317,0.383668 -0.21239,1.103843 -0.0356,0.88233 -0.0161,1.019725 0.20067,1.239171 0.3138,0.321516 1.49576,0.355883 1.79227,0.05245 z M 96.603545,38.371292 C 96.347049,38.26885 96.342658,38.235677 96.373684,36.705929 l 0.03178,-1.560778 h 1.549913 1.549937 l 0.01474,0.660775 c 0.01973,0.850842 0.174495,1.127466 0.702936,1.268719 0.46953,0.125602 1.34066,0.0048 1.55517,-0.213996 0.0729,-0.07452 0.15116,-0.52156 0.17452,-0.993416 0.0378,-0.768723 0.0124,-0.889738 -0.22762,-1.163683 -0.26312,-0.297887 -0.31692,-0.307609 -2.106998,-0.38042 -2.088796,-0.08475 -2.446236,-0.0014 -2.987795,-0.452634 -0.253258,-0.275852 -0.20498,-0.420994 -0.233538,-0.563524 l 0.0069,-1.694826 c 0.0069,-1.651187 0.0069,-1.702411 0.287168,-1.989197 0.440533,-0.451544 1.198662,-0.483281 4.880783,-0.483281 2.54766,0 3.38491,-0.01575 3.47243,0.09564 0.0648,0.08268 0.109,0.764316 0.10008,1.558299 l -0.0147,1.411273 -1.3203,0.03407 c -1.80995,0.0468 -1.83694,0.0368 -1.83694,-0.670194 0,-0.866795 -0.25457,-1.122522 -1.0973,-1.102281 -0.36641,0.0091 -0.78463,0.08085 -0.929479,0.160383 -0.274573,0.150623 -0.542287,0.775292 -0.454297,1.060229 0.02806,0.09063 0.08218,0.312357 0.121368,0.492552 0.10127,0.473764 0.457878,0.572537 2.447018,0.678194 1.91875,0.101994 2.39842,0.246635 2.83308,0.85466 0.20876,0.292008 0.24153,0.535237 0.27442,2.038516 l 0.0372,1.706915 c -0.0122,0.206727 -0.0506,0.370513 -0.25303,0.604771 -0.29856,0.342232 -0.82908,0.317038 -1.03947,0.36011 -0.51282,0.163109 -6.807474,0.141291 -7.3102,-0.05158 z m 28.384635,-0.02045 c -0.0301,-0.0811 -0.0416,-2.15828 -0.0262,-4.616061 l 0.0586,-4.537048 3.44467,-0.02591 c 1.92587,-0.01811 3.75338,0.0091 4.04593,0.01812 0.32619,0.02384 0.84037,0.03746 1.07847,0.340845 0.0406,0.06181 0.12993,0.11905 0.15698,0.454502 l -0.0288,1.957731 c -0.0431,2.89097 0.011,2.950468 -3.09983,3.008238 -1.26456,0.02359 -2.24166,0.09129 -2.32491,0.161754 -0.10224,0.08632 -0.14343,0.59046 -0.14343,1.753143 l 0.0108,1.703457 -1.55232,-0.0023 c -1.13909,-0.0023 -1.4129,-0.0432 -1.56283,-0.129485 z m 5.06098,-4.97849 c 0.46632,-0.226942 0.55125,-0.538441 0.44951,-1.649941 -0.0979,-1.071264 -0.23818,-1.221405 -1.13861,-1.221405 -1.059,0 -1.14408,0.103591 -1.19163,1.449488 -0.0357,1.005957 -0.0161,1.140121 0.2009,1.362066 0.29705,0.304273 1.11683,0.333421 1.67981,0.05975 z m 4.29179,5.041006 c -0.0721,-0.722926 0.0162,-9.099632 0.0951,-9.181505 0.0598,-0.06114 0.42315,-0.07769 1.58441,-0.08337 0.51292,5.44e-4 0.98998,0.01136 1.49999,0.04523 l -0.0152,4.659267 -0.0196,4.689503 c -0.48629,0.02519 -1.01247,0.03341 -1.54165,0.03564 -0.88502,0.0023 -1.58268,-0.02045 -1.58774,-0.07087 z m 4.97532,-0.08587 c -0.86271,-0.451182 -1.00535,-0.732008 -1.00535,-4.180479 0,-3.150356 0.0338,-3.400857 0.55659,-4.140072 0.47432,-0.670581 0.82889,-0.72983 4.64465,-0.775785 2.18735,-0.02615 3.53014,0.0014 3.61648,0.07473 0.0991,0.08405 0.12103,0.535398 0.0801,1.626224 l -0.0573,1.509888 -1.20549,0.0361 c -0.663,0.01813 -1.37339,0.0048 -1.57862,-0.03476 -0.37081,-0.07065 -0.37313,-0.07541 -0.37313,-0.762747 0,-0.610316 -0.0363,-0.720991 -0.30785,-0.939824 -0.51422,-0.414361 -1.83807,-0.221716 -2.0318,0.295024 -0.039,0.104715 -0.0713,1.44973 -0.0713,2.988929 0,3.242948 -0.0552,3.090561 1.1444,3.159987 0.68151,-0.01813 0.82228,0.05182 1.08006,-0.247249 0.20295,-0.235444 0.1595,-0.36723 0.18665,-0.67461 0.0174,-0.1822 0.0394,-0.587556 0.0684,-0.759319 l 0.0312,-0.249544 0.0435,-0.04837 h 1.53553 1.53552 l -8e-5,0.970288 c -2.7e-4,1.135289 -0.10559,1.82847 -0.76062,2.149402 -0.16647,0.08155 -0.39421,0.152198 -0.93466,0.20854 -0.47821,0.04975 -1.26001,0.03271 -2.57127,0.03724 -3.00716,-0.06656 -2.91505,-0.01112 -3.33896,-0.129939 z m 9.78663,0.17583 c -0.12668,-0.03317 -0.3508,-0.17424 -0.49889,-0.313221 -0.57452,-0.53962 -0.5918,-0.748391 -0.5918,-4.291527 l 0.0952,-3.60883 c 0.004,-0.194912 0.14253,-0.364448 0.28481,-0.497911 0.26654,-0.25075 0.57782,-0.57365 3.7458,-0.625561 2.99773,-0.04909 3.50352,0.0067 4.09206,0.514998 0.55092,0.591029 0.62259,0.759817 0.61575,4.018848 -0.009,3.397064 -0.0266,3.902722 -0.64666,4.441003 -0.18404,0.160383 -0.312,0.201727 -0.77169,0.367516 -0.51559,0.103141 -1.02611,0.08518 -2.95151,0.09815 -1.71493,0.01112 -2.96105,-0.03589 -3.08737,-0.0691 z m 4.25762,-1.591282 c 0.16034,-0.251186 0.18576,-0.695327 0.17905,-3.132091 -0.011,-3.338045 0.0108,-3.278709 -1.05478,-3.278709 -0.47688,0 -0.73312,0.06181 -0.92941,0.224444 -0.26726,0.221267 -0.27157,0.259591 -0.30748,2.734339 -0.0196,1.380356 -8.4e-4,2.737749 0.0367,3.016393 0.0867,0.601592 0.27186,0.709863 1.2312,0.720765 0.57799,0.0066 0.6801,-0.02796 0.84473,-0.285277 z"
       id="path3992-2-3-8-1-2-1"
       inkscape:connector-curvature="0"
       sodipodi:nodetypes="csscccccccssscccccccccccccscccccscscsccccccccccccccccccccccsccccccscsccscscsccscccsccsccccccccccccsccscscccssccccscccccccccccscccsccsccscccccccssccccccsssccccccccsccccccc"
       inkscape:export-filename="/Serpico/public/img/logo_1.jpg.png"
       inkscape:export-xdpi="300"
       inkscape:export-ydpi="300" />
  </g>
</svg>
